# xmcd
#
# Track frame offsets:
#	150
#	15037
#	34517
#	53247
#	64292
#	81332
#	97585
#	113607
#	126840
#	143982
#	159175
#	171640
#	187070
#	204405
#	218612
#	226347
#
# Disc length: 3215 seconds
#
# Revision: 0
# Processed by: cddbd v1.5.2PL0 Copyright (c) Steve Scherf et al.
# Submitted via: audiograbber 1.83.01
#
DISCID=cd0c8d10
DTITLE=Various Artist - Oldies Im Schnee
DYEAR=1999
DGENRE=Christmas /Schlager
TTITLE0=Boney M. - When A Child Is Born
TTITLE1=Middle of the Road - Last Christmas
TTITLE2=Pussycat - Little Drummer Boy
TTITLE3=Bonnie Tyler - Silent Night
TTITLE4=Baccara - Zion's Daughter
TTITLE5=Dave Dee - Santa Claus Is Comming To Town
TTITLE6=Mud - Lonely This Christmas
TTITLE7=Ireen Sheer - The First Noel
TTITLE8=Harpo - Christmas
TTITLE9=Bonnie Tyler - Heaven
TTITLE10=Middle of the Road - Winter Wonderland
TTITLE11=Slade - Merry Christmas Everybody
TTITLE12=Pussycat - Happy Christmas
TTITLE13=Baccara - Hark The Herald Angel Sings
TTITLE14=Boney M. - Petit Papa Noel
TTITLE15=Ireen Sheer - Amazing Graze
EXTD=
EXTT0=
EXTT1=
EXTT2=
EXTT3=
EXTT4=
EXTT5=
EXTT6=
EXTT7=
EXTT8=
EXTT9=
EXTT10=
EXTT11=
EXTT12=
EXTT13=
EXTT14=
EXTT15=
PLAYORDER=
